<?xml version="1.0" standalone="no"?>
<!DOCTYPE svg PUBLIC "-//W3C//DTD SVG 20010904//EN"
 "http://www.w3.org/TR/2001/REC-SVG-20010904/DTD/svg10.dtd">
<svg version="1.0" xmlns="http://www.w3.org/2000/svg"
 width="500.000000pt" height="500.000000pt" viewBox="0 0 500.000000 500.000000"
 preserveAspectRatio="xMidYMid meet">

<g transform="translate(0.000000,500.000000) scale(0.100000,-0.100000)"
fill="#000000" stroke="none">
<path d="M4105 3959 c-64 -37 -97 -92 -97 -159 0 -60 22 -103 75 -141 38 -28
48 -30 103 -27 109 7 171 77 162 186 -5 56 -25 91 -71 126 -32 24 -140 33
-172 15z"/>
<path d="M735 3937 c-74 -42 -108 -153 -70 -226 35 -70 123 -110 195 -91 80
22 132 89 132 171 -2 134 -139 213 -257 146z"/>
<path d="M1914 3520 c-29 -16 -66 -46 -83 -67 -40 -48 -65 -130 -56 -183 l7
-39 -67 -32 c-89 -42 -166 -119 -208 -206 -31 -65 -32 -73 -32 -193 0 -119 2
-128 31 -190 17 -36 38 -71 47 -79 23 -18 21 -31 -8 -83 -34 -62 -65 -188 -65
-267 1 -147 63 -313 158 -421 l49 -54 -31 -21 c-42 -28 -64 -69 -50 -92 23
-38 53 -43 257 -43 227 0 261 8 275 64 8 29 15 33 105 64 175 59 299 59 474 0
91 -31 97 -35 105 -65 15 -59 41 -65 283 -61 193 3 215 5 234 22 12 11 21 27
21 36 0 25 -35 65 -68 79 l-28 12 40 43 c100 106 121 132 122 156 0 14 11 61
23 105 42 153 22 366 -44 463 l-25 36 26 30 c55 67 79 135 82 234 5 114 -19
201 -80 292 -44 67 -133 140 -193 160 -34 11 -35 13 -29 50 8 51 -18 136 -57
183 -17 21 -54 51 -83 67 -44 26 -61 30 -127 30 -66 0 -81 -4 -121 -29 -25
-16 -48 -34 -52 -39 -4 -6 -20 -6 -48 1 -55 14 -390 14 -445 0 -39 -10 -44 -9
-65 14 -34 38 -79 53 -155 53 -57 0 -76 -5 -119 -30z m1063 -15 c86 -17 163
-121 163 -221 0 -57 0 -57 -72 -69 -36 -7 -78 -37 -78 -55 0 -15 41 -11 70 5
36 20 127 18 175 -4 197 -92 276 -383 156 -573 -36 -57 -88 -91 -158 -105
l-53 -10 0 56 c0 74 8 101 30 101 10 0 32 12 49 26 24 20 31 34 31 62 0 31 5
40 32 55 29 16 30 19 15 34 -14 15 -23 14 -109 -10 -188 -53 -303 -65 -437
-45 -13 1 -26 -2 -28 -9 -8 -21 46 -45 112 -51 36 -2 65 -7 65 -10 0 -2 -13
-28 -30 -56 -16 -29 -32 -72 -36 -95 -7 -42 -6 -44 15 -38 18 4 21 2 16 -11
-3 -9 -9 -29 -12 -43 -5 -26 -10 -28 -194 -64 -104 -21 -191 -41 -194 -45 -2
-3 -99 14 -214 39 -134 28 -207 49 -201 55 6 6 2 18 -10 34 -17 21 -18 26 -5
39 19 18 12 52 -26 120 -16 29 -29 57 -29 63 0 5 19 10 43 10 59 0 115 17 127
39 13 26 -8 33 -57 19 -57 -16 -183 -4 -318 30 -173 43 -191 46 -199 27 -4
-11 4 -22 23 -33 24 -13 29 -22 24 -42 -6 -32 32 -81 77 -100 16 -7 30 -20 31
-29 0 -9 4 -40 8 -68 8 -60 13 -58 -77 -39 -73 16 -106 42 -146 115 -96 178
-28 437 141 537 59 34 155 44 201 20 38 -20 62 -21 62 -3 0 25 -37 48 -87 55
l-48 7 -3 50 c-2 28 1 66 7 85 15 49 67 109 115 131 80 36 198 15 221 -39 8
-19 15 -22 39 -18 16 4 94 11 173 17 138 10 180 8 355 -17 44 -6 48 -5 59 19
16 36 95 71 139 62 8 -2 29 -6 47 -10z m-1117 -786 c35 -5 74 -16 85 -23 21
-14 52 -63 44 -70 -9 -9 -175 16 -189 29 -8 7 -32 20 -52 28 -59 25 -49 64 12
52 19 -3 64 -10 100 -16z m1385 -3 c0 -21 -16 -32 -59 -41 -19 -4 -32 -15 -39
-35 -9 -25 -15 -28 -37 -23 -42 9 -120 45 -120 54 0 18 48 38 120 49 41 6 76
13 79 16 3 3 17 4 31 2 17 -2 25 -9 25 -22z m-171 -107 c56 -12 79 -31 60 -49
-8 -7 -157 29 -169 41 -2 3 -2 15 2 27 5 21 7 21 27 9 12 -8 48 -20 80 -28z
m-1056 -27 c22 -29 8 -37 -65 -34 -97 4 -127 13 -131 41 l-4 23 94 -7 c68 -5
96 -11 106 -23z m1342 -102 c0 -24 -32 -70 -68 -98 -43 -34 -149 -76 -324
-127 -79 -23 -132 -45 -165 -68 -26 -19 -77 -49 -113 -67 l-64 -32 -26 31
c-33 38 -84 161 -73 172 5 5 71 20 148 34 77 14 174 34 215 44 41 10 125 26
185 35 135 21 206 41 237 66 25 21 48 26 48 10z m-1505 -18 c-3 -3 -11 0 -18
7 -9 10 -8 11 6 5 10 -3 15 -9 12 -12z m-93 -33 c47 -9 519 -108 607 -127 19
-4 36 -13 38 -19 2 -6 -16 -25 -41 -43 -39 -26 -46 -36 -46 -63 0 -62 -28 -67
-87 -16 -19 16 -76 42 -144 64 -148 48 -396 177 -398 208 -1 9 8 9 71 -4z
m757 -243 c-31 -108 -53 -103 -43 9 8 88 13 96 34 55 13 -25 15 -42 9 -64z
m712 74 c6 0 7 -4 4 -10 -3 -5 0 -7 8 -4 8 3 18 0 22 -5 3 -6 10 -9 15 -6 10
6 25 -34 15 -43 -4 -4 -32 -10 -63 -13 l-57 -6 72 -2 c49 -1 73 3 76 12 4 8 8
8 14 2 4 -5 14 -10 21 -11 6 -1 21 -2 32 -2 15 -2 20 -9 20 -32 0 -29 -13 -40
-25 -20 -3 6 -26 10 -50 10 -25 0 -46 5 -49 13 -5 10 -7 10 -12 0 -3 -7 -17
-13 -30 -13 -13 0 -24 6 -25 13 0 10 -2 10 -6 0 -3 -9 -27 -13 -69 -13 -64 0
-64 0 -64 28 0 37 30 40 31 3 1 -17 3 -20 6 -8 2 9 11 17 18 17 7 0 16 -8 18
-17 4 -14 5 -12 6 5 1 26 21 64 39 75 11 7 11 11 0 25 -11 14 -10 15 5 9 10
-4 23 -7 28 -7z m59 0 c0 -5 -2 -10 -4 -10 -3 0 -8 5 -11 10 -3 6 -1 10 4 10
6 0 11 -4 11 -10z m-324 -92 c-3 -13 -5 -26 -5 -30 -1 -5 -5 -8 -11 -8 -11 0
-14 43 -3 53 13 14 23 6 19 -15z m44 8 c0 -22 -11 -46 -21 -46 -5 0 -9 14 -9
30 0 20 5 30 15 30 8 0 15 -6 15 -14z m36 -2 c-3 -9 -6 -23 -6 -31 0 -22 -6
-14 -14 20 -5 21 -3 27 10 27 11 0 14 -5 10 -16z m-1509 -106 c-3 -8 -6 -5 -6
6 -1 11 2 17 5 13 3 -3 4 -12 1 -19z m1574 -198 c117 -11 214 -22 216 -24 9
-9 -106 -113 -149 -136 -27 -14 -48 -32 -48 -41 0 -14 10 -16 68 -12 57 5 71
2 92 -15 21 -17 23 -23 12 -34 -17 -18 -380 -25 -411 -9 -26 15 -27 31 -2 31
26 0 34 15 17 29 -7 6 -85 32 -172 58 -141 41 -171 46 -264 47 -99 1 -112 -2
-225 -40 -66 -23 -139 -47 -163 -53 -45 -13 -52 -33 -14 -39 28 -4 28 -18 1
-33 -31 -16 -394 -9 -411 9 -11 11 -9 17 12 34 21 17 35 20 93 15 58 -4 68 -2
65 11 -2 9 -28 30 -58 48 -30 18 -72 50 -93 72 l-39 39 34 12 c72 25 224 41
448 47 129 4 237 9 240 11 11 11 548 -9 751 -27z"/>
<path d="M1974 3389 c-25 -13 -44 -49 -44 -85 0 -28 40 -74 64 -74 25 0 76 53
82 85 10 55 -51 99 -102 74z"/>
<path d="M2920 3387 c-34 -17 -50 -79 -29 -115 12 -21 23 -28 56 -30 57 -4 88
25 79 76 -9 60 -59 92 -106 69z"/>
<path d="M2277 3323 c-4 -3 -7 -14 -7 -24 0 -29 57 -52 120 -50 72 2 123 2
186 0 56 -2 88 11 105 42 16 30 -4 48 -29 26 -24 -22 -127 -34 -147 -17 -13
11 -23 11 -54 0 -46 -15 -123 -6 -141 15 -14 16 -23 19 -33 8z"/>
</g>
</svg>
